<svg width="347" height="262" viewBox="0 0 347 262" fill="none" xmlns="http://www.w3.org/2000/svg">
<path d="M154 4.55891C154.002 4.17875 153.891 3.80656 153.681 3.4895C153.472 3.17245 153.173 2.9248 152.822 2.77795C152.471 2.63109 152.085 2.59164 151.712 2.66459C151.339 2.73754 150.996 2.91961 150.726 3.18772C150.457 3.45583 150.273 3.79792 150.198 4.17064C150.123 4.54335 150.16 4.92992 150.305 5.28133C150.45 5.63275 150.696 5.9332 151.012 6.14462C151.328 6.35604 151.7 6.4689 152.08 6.46891C152.588 6.46892 153.074 6.268 153.434 5.91009C153.794 5.55218 153.997 5.06639 154 4.55891V4.55891Z" fill="white" stroke="#263238" stroke-linecap="round" stroke-linejoin="round"/>
<path d="M163.759 160.512H139.789V257.222H163.759V160.512Z" fill="#4A4A4A" stroke="#263238" stroke-linecap="round" stroke-linejoin="round"/>
<path d="M303.039 0.980469H0.519531V184.47H303.039V0.980469Z" fill="#4A4A4A" stroke="#263238" stroke-linecap="round" stroke-linejoin="round"/>
<path d="M292.14 7.60156H11.4199V177.872H292.14V7.60156Z" fill="white" stroke="#263238" stroke-linecap="round" stroke-linejoin="round"/>
<path d="M292.14 167.609H11.4199V177.859H292.14V167.609Z" fill="white" stroke="#263238" stroke-linecap="round" stroke-linejoin="round"/>
<path d="M152.501 249.82L63.6309 255.56V261.35H238.751V255.56L152.501 249.82Z" fill="#4A4A4A" stroke="#263238" stroke-linecap="round" stroke-linejoin="round"/>
<path d="M151.779 149.399C183.077 149.399 208.449 124.027 208.449 92.7286C208.449 61.4306 183.077 36.0586 151.779 36.0586C120.481 36.0586 95.1094 61.4306 95.1094 92.7286C95.1094 124.027 120.481 149.399 151.779 149.399Z" fill="white" stroke="#263238" stroke-linecap="round" stroke-linejoin="round"/>
<path d="M159.53 100.5H141.41V118.62H159.53V100.5Z" fill="white" stroke="#263238" stroke-linecap="round" stroke-linejoin="round"/>
<path d="M132.509 76.0002C132.509 76.0002 129.649 70.2802 127.109 74.0902C124.569 77.9002 128.729 82.6502 129.969 86.1702C131.209 89.6902 132.829 88.0802 132.829 88.0802L132.509 76.0002Z" fill="white" stroke="#263238" stroke-linecap="round" stroke-linejoin="round"/>
<path d="M169.22 76.0002C169.22 76.0002 172.08 70.2802 174.63 74.0902C177.18 77.9002 173 82.6502 171.77 86.1702C170.54 89.6902 168.91 88.0802 168.91 88.0802L169.22 76.0002Z" fill="white" stroke="#263238" stroke-linecap="round" stroke-linejoin="round"/>
<path d="M151.101 50.5781H150.181C139.704 50.5781 131.211 59.0713 131.211 69.5481V89.7181C131.211 100.195 139.704 108.688 150.181 108.688H151.101C161.578 108.688 170.071 100.195 170.071 89.7181V69.5481C170.071 59.0713 161.578 50.5781 151.101 50.5781Z" fill="white" stroke="#263238" stroke-linecap="round" stroke-linejoin="round"/>
<path d="M153.109 75.6719V84.4619C153.109 84.4619 155.219 84.6619 154.449 86.5719C153.679 88.4819 151.579 90.2019 147.949 87.7119" fill="white"/>
<path d="M153.109 75.6719V84.4619C153.109 84.4619 155.219 84.6619 154.449 86.5719C153.679 88.4819 151.579 90.2019 147.949 87.7119" stroke="#263238" stroke-linecap="round" stroke-linejoin="round"/>
<path d="M142.049 77.4491C142.049 79.4491 141.409 81.1091 140.619 81.1091C139.829 81.1091 139.189 79.4691 139.189 77.4491C139.189 75.4291 139.829 73.7891 140.619 73.7891C141.409 73.7891 142.049 75.4291 142.049 77.4491Z" fill="#263238"/>
<path d="M159.7 81.1091C160.489 81.1091 161.13 79.4704 161.13 77.4491C161.13 75.4277 160.489 73.7891 159.7 73.7891C158.91 73.7891 158.27 75.4277 158.27 77.4491C158.27 79.4704 158.91 81.1091 159.7 81.1091Z" fill="#263238"/>
<path d="M143.32 90.9997C143.32 90.9997 148.41 94.1797 151.91 94.1797C155.41 94.1797 159.54 90.6797 159.54 90.6797" fill="white"/>
<path d="M143.32 90.9997C143.32 90.9997 148.41 94.1797 151.91 94.1797C155.41 94.1797 159.54 90.6797 159.54 90.6797" stroke="#263238" stroke-linecap="round" stroke-linejoin="round"/>
<path d="M137.279 70.9317C137.279 70.9317 141.099 67.7517 145.549 69.9317Z" fill="white"/>
<path d="M137.279 70.9317C137.279 70.9317 141.099 67.7517 145.549 69.9317" stroke="#263238" stroke-linecap="round" stroke-linejoin="round"/>
<path d="M155.4 70.2994C155.4 70.2994 158.58 66.4794 164.31 71.2494Z" fill="white"/>
<path d="M155.4 70.2994C155.4 70.2994 158.58 66.4794 164.31 71.2494" stroke="#263238" stroke-linecap="round" stroke-linejoin="round"/>
<path d="M131.24 76.3392C131.24 76.3392 132.51 65.2092 134.42 63.9392C136.33 62.6692 140.42 60.1192 141.42 59.4792C142.217 58.7656 142.866 57.9026 143.33 56.9392C143.33 56.9392 143.33 46.4492 139.83 46.4492C136.33 46.4492 129.66 48.3592 129.66 57.2592C129.65 62.3892 131.24 76.3392 131.24 76.3392Z" fill="#263238" stroke="#263238" stroke-linecap="round" stroke-linejoin="round"/>
<path d="M141.41 59.4793C141.41 59.4793 146.07 55.9393 155.17 60.0493C164.27 64.1593 168.32 70.2793 169.22 76.0493C170.12 81.8193 170.13 96.4593 170.13 96.4593C170.13 96.4593 180.69 91.7593 181.87 75.0393C183.05 58.3193 178.34 44.8193 162.79 40.1293C147.24 35.4393 138.15 46.2893 138.15 46.2893L141.41 59.4793Z" fill="#263238" stroke="#263238" stroke-linecap="round" stroke-linejoin="round"/>
<path d="M192.339 132.28C184.539 127.8 165.999 118.12 150.639 117.51C134.979 116.89 117.969 127.63 111.279 132.35C116.559 137.753 122.865 142.044 129.829 144.972C136.792 147.9 144.27 149.405 151.824 149.399C159.378 149.392 166.854 147.874 173.812 144.934C180.77 141.994 187.069 137.692 192.339 132.28Z" fill="#263238" stroke="#263238" stroke-linecap="round" stroke-linejoin="round"/>
<path d="M138.23 147.749C146.464 149.781 155.048 149.938 163.35 148.209V119.669C159.209 118.471 154.945 117.746 150.64 117.509C146.45 117.405 142.267 117.928 138.23 119.059V147.749Z" fill="white" stroke="#263238" stroke-linecap="round" stroke-linejoin="round"/>
<path d="M164.361 110.988H136.921C135.893 110.988 135.061 111.821 135.061 112.848V122.168C135.061 123.196 135.893 124.028 136.921 124.028H164.361C165.388 124.028 166.221 123.196 166.221 122.168V112.848C166.221 111.821 165.388 110.988 164.361 110.988Z" fill="white" stroke="#263238" stroke-linecap="round" stroke-linejoin="round"/>
<path d="M138.869 111.309V120.209" stroke="#263238" stroke-linecap="round" stroke-linejoin="round"/>
<path d="M141.73 123.389V115.129" stroke="#263238" stroke-linecap="round" stroke-linejoin="round"/>
<path d="M146.82 110.988V118.938" stroke="#263238" stroke-linecap="round" stroke-linejoin="round"/>
<path d="M156.039 124.029V118.309" stroke="#263238" stroke-linecap="round" stroke-linejoin="round"/>
<path d="M337.86 92.5703H278.5C275.684 92.5703 273.4 94.8537 273.4 97.6703V136.86C273.4 139.677 275.684 141.96 278.5 141.96H337.86C340.677 141.96 342.96 139.677 342.96 136.86V97.6703C342.96 94.8537 340.677 92.5703 337.86 92.5703Z" fill="#263238" stroke="#263238" stroke-linecap="round" stroke-linejoin="round"/>
<path d="M340.87 89.1289H281.51C278.694 89.1289 276.41 91.4122 276.41 94.2289V133.419C276.41 136.236 278.694 138.519 281.51 138.519H340.87C343.687 138.519 345.97 136.236 345.97 133.419V94.2289C345.97 91.4122 343.687 89.1289 340.87 89.1289Z" fill="white" stroke="#263238" stroke-linecap="round" stroke-linejoin="round"/>
<path d="M327.51 113.12L300.42 97.4805V128.76L327.51 113.12Z" fill="white" stroke="#263238" stroke-linecap="round" stroke-linejoin="round"/>
<path d="M32.7891 14.2695H74.7291" stroke="white" stroke-miterlimit="10"/>
<path d="M309.72 250.622C305.48 250.622 301.24 247.912 298.98 245.792C298.765 245.591 298.591 245.35 298.469 245.082C298.347 244.814 298.279 244.524 298.269 244.23C298.259 243.935 298.307 243.642 298.41 243.366C298.513 243.09 298.67 242.837 298.87 242.622C299.071 242.407 299.313 242.233 299.581 242.111C299.849 241.989 300.138 241.921 300.433 241.91C300.727 241.9 301.021 241.948 301.296 242.051C301.572 242.154 301.825 242.311 302.04 242.512C302.1 242.572 308.89 248.772 312.87 244.802C316.31 241.352 319.87 234.452 319.81 228.472C319.837 227.126 319.585 225.79 319.068 224.547C318.552 223.304 317.783 222.182 316.81 221.252C315.01 219.582 313.28 218.842 311.66 219.052C308.84 219.412 306.87 222.452 306.85 222.482C306.693 222.731 306.489 222.948 306.248 223.118C306.008 223.289 305.736 223.41 305.449 223.475C304.868 223.608 304.259 223.504 303.755 223.187C303.252 222.87 302.894 222.366 302.762 221.785C302.63 221.205 302.733 220.596 303.05 220.092C303.17 219.902 306.12 215.252 311.05 214.602C314.05 214.202 317.05 215.332 319.87 217.962C321.28 219.306 322.398 220.926 323.157 222.72C323.915 224.514 324.298 226.444 324.28 228.392C324.41 235.692 320.28 243.772 316.02 247.972C315.205 248.818 314.226 249.489 313.143 249.945C312.06 250.4 310.895 250.631 309.72 250.622Z" fill="white" stroke="#263238" stroke-linecap="round" stroke-linejoin="round"/>
<path d="M307.6 245.799C305.551 245.074 303.663 243.956 302.04 242.509C301.825 242.308 301.572 242.152 301.296 242.048C301.021 241.945 300.727 241.897 300.433 241.908C300.138 241.918 299.849 241.986 299.581 242.108C299.313 242.23 299.071 242.404 298.87 242.619C298.67 242.834 298.513 243.087 298.41 243.363C298.307 243.639 298.259 243.933 298.269 244.227C298.279 244.521 298.347 244.811 298.469 245.079C298.591 245.347 298.765 245.588 298.98 245.789C301.315 247.977 304.162 249.541 307.26 250.339L307.6 245.799Z" fill="#263238" stroke="#263238" stroke-linecap="round" stroke-linejoin="round"/>
<path d="M303.069 220.092C302.752 220.595 302.648 221.205 302.781 221.785C302.913 222.365 303.27 222.87 303.774 223.187C304.278 223.503 304.887 223.607 305.468 223.475C306.048 223.343 306.552 222.985 306.869 222.482C307.58 221.437 308.491 220.543 309.549 219.852L309.919 214.852C307.106 215.768 304.69 217.616 303.069 220.092V220.092Z" fill="#263238" stroke="#263238" stroke-linecap="round" stroke-linejoin="round"/>
<path d="M304.63 261.351H274.9L271.18 211.801H308.35L304.63 261.351Z" fill="white" stroke="#263238" stroke-linecap="round" stroke-linejoin="round"/>
<path d="M285.519 248C289.982 248 293.599 241.512 293.599 233.51C293.599 225.507 289.982 219.02 285.519 219.02C281.057 219.02 277.439 225.507 277.439 233.51C277.439 241.512 281.057 248 285.519 248Z" fill="#00D1B2"/>
<path d="M268.109 163.401C268.546 161.821 269.118 160.282 269.819 158.801" stroke="#263238" stroke-linecap="round" stroke-linejoin="round"/>
<path d="M277.08 207.342C277.08 207.342 285.44 198.972 276.52 188.932C269.83 181.412 266.59 174.202 267.52 166.602" stroke="#263238" stroke-linecap="round" stroke-linejoin="round"/>
<path d="M294.499 193.79C294.107 192.276 293.501 190.824 292.699 189.48" stroke="#263238" stroke-linecap="round" stroke-linejoin="round"/>
<path d="M293.25 207.34C294.591 204.183 295.206 200.766 295.05 197.34" stroke="#263238" stroke-linecap="round" stroke-linejoin="round"/>
<path d="M4.00031 170.998C4.00031 171.818 3.73031 172.498 3.41031 172.498C3.09031 172.498 2.82031 171.818 2.82031 170.998C2.82031 170.178 3.09031 169.488 3.41031 169.488C3.73031 169.488 4.00031 170.148 4.00031 170.998Z" fill="#263238"/>
<path d="M11.7796 170.998C11.7796 171.818 11.5196 172.498 11.1896 172.498C10.8596 172.498 10.5996 171.818 10.5996 170.998C10.5996 170.178 10.8696 169.488 11.1896 169.488C11.5096 169.488 11.7796 170.148 11.7796 170.998Z" fill="#263238"/>
<path d="M37.5605 85.3694V95.3594L50.1306 102.619V78.1094L37.5605 85.3694Z" fill="white" stroke="#263238" stroke-linecap="round" stroke-linejoin="round"/>
<path d="M37.5594 85.3711H31.6094V95.2911H37.5594V85.3711Z" fill="white" stroke="#263238" stroke-linecap="round" stroke-linejoin="round"/>
</svg>
